<?xml version="1.0" encoding="UTF-8"?>
<svg version="1.1" xmlns="http://www.w3.org/2000/svg" width="512" height="512">
<path d="M0 0 C1.05855194 -0.00511093 2.11710388 -0.01022186 3.20773315 -0.01548767 C6.67476201 -0.02928082 10.1415897 -0.02843425 13.60864258 -0.02612305 C16.04323906 -0.03001639 18.47783486 -0.03435237 20.91242981 -0.03910828 C26.00528163 -0.04654904 31.0980641 -0.04629535 36.19091797 -0.04101562 C42.67862227 -0.03523245 49.16604002 -0.05213495 55.65369701 -0.0753603 C60.68040086 -0.09018121 65.70703709 -0.09095787 70.73375893 -0.08785057 C73.12366616 -0.08835987 75.51357758 -0.09352304 77.90346336 -0.10366249 C101.20645693 -0.19038638 120.40983378 1.40632232 138.81567383 17.2746582 C139.48985352 17.80575195 140.1640332 18.3368457 140.85864258 18.8840332 C151.15104944 27.24536953 162.17192642 42.95106496 164.13208008 56.4543457 C164.75605338 63.28833903 164.9495455 70.10375837 165.00317383 76.9621582 C165.01614502 77.84049316 165.02911621 78.71882813 165.04248047 79.6237793 C165.06984932 99.05566411 155.46623311 115.2707614 142.44067383 129.0871582 C123.091867 147.60052432 99.47697796 149.75096727 74.13208008 149.70825195 C71.74421542 149.71282255 69.35635208 149.71813071 66.9684906 149.72413635 C61.98349638 149.73303023 56.99866269 149.73068657 52.01367188 149.72070312 C45.66149824 149.70921398 39.30988058 149.72944401 32.95777988 149.75862026 C28.03232878 149.7770647 23.10700892 149.77667347 18.18153191 149.77098274 C15.84103554 149.77083056 13.50052968 149.77678847 11.1600666 149.78927422 C-4.96844717 149.86321691 -19.67703599 149.11856375 -34.18432617 141.2746582 C-35.03124023 140.81704102 -35.8781543 140.35942383 -36.75073242 139.88793945 C-53.96302695 129.77602247 -65.87802907 113.03589208 -72.18432617 94.2746582 C-73.84614369 85.885483 -73.3470321 77.23306933 -73.21704102 68.72094727 C-73.19064071 66.74683504 -73.19276609 64.77235329 -73.20385742 62.7980957 C-72.8386457 50.17220459 -65.99802348 37.88648669 -58.18432617 28.2746582 C-57.5062793 27.43418945 -56.82823242 26.5937207 -56.12963867 25.7277832 C-48.75532419 17.06755623 -40.21012459 11.10913005 -30.18432617 5.8996582 C-29.55647217 5.56562988 -28.92861816 5.23160156 -28.28173828 4.88745117 C-19.39472103 0.47291084 -9.76802784 -0.02486468 0 0 Z " fill="#FDFDFD" transform="translate(210.184326171875,121.725341796875)"/>
<path d="M0 0 C1.17278241 -0.00596161 1.17278241 -0.00596161 2.36925739 -0.01204365 C4.96779166 -0.02160547 7.5657731 -0.00988603 10.16429138 0.00190735 C12.0358653 -0.00052262 13.90743791 -0.00424392 15.77900696 -0.00915527 C20.84709313 -0.01853916 25.91498532 -0.00916018 30.98305631 0.00417686 C36.29289344 0.01551582 41.60272137 0.01138199 46.91256714 0.00942993 C55.82739928 0.00854781 64.74215525 0.01961094 73.65696716 0.03804016 C83.95781335 0.05921299 94.25854804 0.06271577 104.55941159 0.0564782 C114.47781376 0.05078017 124.39617676 0.05643498 134.31457329 0.06765175 C138.53170943 0.07229124 142.74882155 0.0731744 146.96595955 0.0710659 C151.93264826 0.06917985 156.89922378 0.07731132 161.86588669 0.0931263 C163.68675073 0.09736222 165.50762628 0.09822436 167.32849312 0.0954361 C169.81742619 0.0922035 172.30602333 0.10132308 174.79492188 0.11352539 C175.87090829 0.10785641 175.87090829 0.10785641 176.9686318 0.10207289 C186.38888834 0.1835472 195.02364531 3.59353038 201.73631287 10.2648468 C219.87188941 32.79020837 207.83396912 99.88790558 207.83396912 104.3742218 C129.29396912 104.3742218 50.75396912 104.3742218 -30.16603088 104.3742218 C-30.16603088 16.60362047 -30.16603088 16.60362047 -23.72853088 9.9367218 C-23.15231995 9.31926086 -22.57610901 8.70179993 -21.98243713 8.06562805 C-15.51522577 2.04347209 -8.76067663 -0.09034304 0 0 Z " fill="#FEFEFE" transform="translate(167.16603088378906,285.6257781982422)"/>
<path d="M0 0 C4.51458571 2.35310325 8.1538541 5.15499271 10 10 C10.69671833 14.90943384 10.53659091 18.88554196 8.375 23.375 C5.24662276 26.8326801 2.59582664 29.58522698 -2.17578125 30.34765625 C-7.14576524 30.53977328 -10.84894911 29.92460404 -15 27 C-18.51639693 23.5673268 -20.32017009 20.3927288 -20.5625 15.4375 C-20.29195141 11.01853963 -18.91560957 8.38841113 -16 5 C-10.7845856 0.40546826 -6.93507204 -1.17973403 0 0 Z " fill="#080808" transform="translate(216,181)"/>
<path d="M0 0 C3.88446678 2.58964452 6.69907021 5.64814041 8.8125 9.875 C9.49527011 14.6641446 9.41750222 18.64624667 6.6875 22.75 C3.69656195 26.3609084 0.59725577 28.53512823 -4.171875 29.1171875 C-8.26928874 29.2558218 -11.65664755 28.97442578 -15.1875 26.875 C-19.07651885 22.9308959 -21.34077532 19.75620069 -21.5625 14.1875 C-21.50758282 8.75854492 -20.0037334 5.67014923 -16.1875 1.875 C-11.232255 -2.27669176 -5.81673115 -2.05296394 0 0 Z " fill="#080808" transform="translate(307.1875,182.125)"/>
<path d="M0 0 C0.66 0.33 1.32 0.66 2 1 C-1.96 4.96 -5.92 8.92 -10 13 C-10 8.41771462 -7.08388033 6.1816619 -4 3 C-1.625 1.0625 -1.625 1.0625 0 0 Z " fill="#CBCBCB" transform="translate(151,289)"/>
</svg>
