<?xml version="1.0" encoding="UTF-8"?>
<svg version="1.1" xmlns="http://www.w3.org/2000/svg" width="512" height="512">
<path d="M0 0 C1.05533936 -0.00671722 2.11067871 -0.01343445 3.19799805 -0.02035522 C6.65540396 -0.0392096 10.11261436 -0.04325345 13.57006836 -0.04541016 C15.99987362 -0.05184811 18.42967812 -0.0585772 20.85948181 -0.06558228 C25.94393711 -0.07752469 31.02832464 -0.08126636 36.11279297 -0.08007812 C42.58243482 -0.07987542 49.05163502 -0.10714155 55.52117252 -0.14162254 C60.53938231 -0.16402022 65.5574881 -0.1679117 70.57574272 -0.16685867 C72.95842442 -0.16919669 75.3411098 -0.17791687 77.72374153 -0.19352341 C104.50542214 -0.35249172 125.24174474 4.0856229 145.35131836 22.59521484 C161.87385415 39.66371269 165.30805386 58.789491 164.98803711 81.65771484 C164.50829589 101.14913624 154.02145437 118.0526484 140.21069336 131.26708984 C120.71460434 147.95960904 98.48217488 149.7621099 74.02319336 149.68896484 C71.62574678 149.69098973 69.22830081 149.6939046 66.83085632 149.69766235 C61.82907188 149.70206361 56.82744912 149.69572402 51.82568359 149.68164062 C45.43732287 149.66452239 39.04933963 149.67442095 32.66099262 149.69235802 C27.71855355 149.70323158 22.77620305 149.69973358 17.83376122 149.69197464 C15.4788019 149.68998396 13.12383435 149.69239178 10.76888466 149.6994133 C7.47233573 149.70708986 4.17638737 149.69533791 0.87988281 149.67871094 C-0.07780502 149.68478363 -1.03549286 149.69085632 -2.02220154 149.69711304 C-8.79731248 149.63427108 -14.70022026 148.29604021 -21.15258789 146.29052734 C-22.22250977 146.00951172 -23.29243164 145.72849609 -24.39477539 145.43896484 C-42.26058593 140.19055166 -56.14699628 125.97814859 -65.16674805 110.11523438 C-72.62569691 96.30934438 -73.43335969 84.0079264 -73.18530273 68.62255859 C-73.15847219 66.70998132 -73.16115163 64.79701137 -73.17211914 62.88427734 C-72.80680448 50.22003576 -65.99306849 37.93530264 -58.15258789 28.29052734 C-57.47454102 27.45005859 -56.79649414 26.60958984 -56.09790039 25.74365234 C-48.72358591 17.08342537 -40.17838631 11.12499919 -30.15258789 5.91552734 C-29.52473389 5.58149902 -28.89687988 5.2474707 -28.25 4.90332031 C-19.3767318 0.49560969 -9.75372889 -0.00911294 0 0 Z " fill="#000000" transform="translate(210.152587890625,121.70947265625)"/>
<path d="M0 0 C1.17278241 -0.00596161 1.17278241 -0.00596161 2.36925739 -0.01204365 C4.96779166 -0.02160547 7.5657731 -0.00988603 10.16429138 0.00190735 C12.0358653 -0.00052262 13.90743791 -0.00424392 15.77900696 -0.00915527 C20.84709313 -0.01853916 25.91498532 -0.00916018 30.98305631 0.00417686 C36.29289344 0.01551582 41.60272137 0.01138199 46.91256714 0.00942993 C55.82739928 0.00854781 64.74215525 0.01961094 73.65696716 0.03804016 C83.95781335 0.05921299 94.25854804 0.06271577 104.55941159 0.0564782 C114.47781376 0.05078017 124.39617676 0.05643498 134.31457329 0.06765175 C138.53170943 0.07229124 142.74882155 0.0731744 146.96595955 0.0710659 C151.93264826 0.06917985 156.89922378 0.07731132 161.86588669 0.0931263 C163.68675073 0.09736222 165.50762628 0.09822436 167.32849312 0.0954361 C169.81742619 0.0922035 172.30602333 0.10132308 174.79492188 0.11352539 C175.87090829 0.10785641 175.87090829 0.10785641 176.9686318 0.10207289 C186.38888834 0.1835472 195.02364531 3.59353038 201.73631287 10.2648468 C219.87188941 32.79020837 207.83396912 99.88790558 207.83396912 104.3742218 C129.29396912 104.3742218 50.75396912 104.3742218 -30.16603088 104.3742218 C-30.16603088 16.60362047 -30.16603088 16.60362047 -23.72853088 9.9367218 C-23.15231995 9.31926086 -22.57610901 8.70179993 -21.98243713 8.06562805 C-15.51522577 2.04347209 -8.76067663 -0.09034304 0 0 Z " fill="#000000" transform="translate(167.16603088378906,285.6257781982422)"/>
<path d="M0 0 C4.51458571 2.35310325 8.1538541 5.15499271 10 10 C10.69671833 14.90943384 10.53659091 18.88554196 8.375 23.375 C5.24662276 26.8326801 2.59582664 29.58522698 -2.17578125 30.34765625 C-7.15696087 30.54020605 -10.78505543 29.84263704 -15 27 C-19.09255202 22.57561944 -20.37047619 19.13712822 -20.28125 13.05859375 C-19.65153255 8.44941188 -16.72879725 5.64203568 -13.375 2.6875 C-8.99111034 -0.42736897 -5.29822258 -0.90128747 0 0 Z " fill="#E0E0E0" transform="translate(216,181)"/>
<path d="M0 0 C5.67507225 2.00296668 9.30675089 5.61350179 12 11 C12.44326044 16.23047317 12.28815025 19.98879273 9.39453125 24.45703125 C5.82233226 28.4094643 1.49647607 29.84781599 -3.6875 30.375 C-8.70771266 29.80667404 -11.46772658 28.84494887 -14.75 25 C-18.49342641 20.00876478 -18.67072939 16.1404803 -18 10 C-14.30022086 2.31584331 -8.37913673 -1.36014043 0 0 Z " fill="#E0E0E0" transform="translate(304,181)"/>
<path d="M0 0 C0.66 0.33 1.32 0.66 2 1 C-1.96 4.96 -5.92 8.92 -10 13 C-10 8.41771462 -7.08388033 6.1816619 -4 3 C-1.625 1.0625 -1.625 1.0625 0 0 Z " fill="#2E2E2E" transform="translate(151,289)"/>
</svg>
